# xmcd
#
# Track frame offsets:
#	150
#	15065
#	28569
#
# Disc length: 636 seconds
# Revision: 0
# Processed by: cddbd v1.5.2PL0 Copyright (c) Steve Scherf et al.
# Submitted via: dBpowerAMP V12.0
#
DISCID=0f027a03
DTITLE=Sam Taylor - Memphis Midnight Sun
DYEAR=2019
DGENRE=
TTITLE0=Rolling Away
TTITLE1=Memphis
TTITLE2=Kiss Me One More Time
EXTD=
EXTT0=
EXTT1=
EXTT2=
PLAYORDER=
